<?xml version="1.0" encoding="UTF-8"?>
<svg width="41px" height="62px" viewBox="0 0 41 62" version="1.1" xmlns="http://www.w3.org/2000/svg" xmlns:xlink="http://www.w3.org/1999/xlink">
    <title>编组 7</title>
    <g id="2020.04.03--地图优化" stroke="none" stroke-width="1" fill="none" fill-rule="evenodd">
        <g id="A4-1--2-运单轨迹-实时轨迹" transform="translate(-810.000000, -646.000000)">
            <g id="编组-7" transform="translate(812.866894, 648.000000)">
                <ellipse id="椭圆形备份-2" fill-opacity="0.2" fill="#000000" cx="18.3012368" cy="51.3314119" rx="10.5981615" ry="8.3345881"></ellipse>
                <path d="M16.9593067,-0.976116808 C22.3919129,-1.24439367 27.3222956,0.761385037 30.9029773,4.17155805 C34.5086806,7.60556122 36.746576,12.465442 36.746576,17.8683295 C36.746576,24.0566555 33.7908519,29.440619 29.2157607,32.9392182 C24.4902463,36.4531751 21.450293,41.7668045 21.450293,47.6960814 L21.450293,47.6960814 L21.450293,48.4608955 C21.450293,49.4369752 21.0520644,50.3249572 20.4085193,50.9685023 C19.7649742,51.6120474 18.8769921,52.010276 17.9009125,52.010276 C16.9248329,52.010276 16.0368509,51.6120474 15.3933058,50.9685023 C14.7497607,50.3249572 14.351532,49.4369752 14.351532,48.4608955 L14.351532,48.4608955 L14.351532,47.6960814 C14.351532,42.0312519 11.710791,36.4786611 7.00671149,33.2219906 C1.75505514,29.5862285 -1.48054408,23.393076 -0.941097633,16.3807691 C-0.537957782,11.677471 1.60858985,7.44288599 4.81514677,4.33276687 C8.03230539,1.21236491 12.3142867,-0.774176798 16.9593067,-0.976116808 Z" id="形状" stroke="#FFFFFF" stroke-width="2" fill="#00A19C" fill-rule="nonzero"></path>
                <text id="提货" font-family="PingFang-SC-Heavy, PingFang SC" font-size="14" font-weight="600" line-spacing="14" letter-spacing="-0.7" fill="#FFFFFF">
                    <tspan x="3.565288" y="23.630223">提货</tspan>
                </text>
            </g>
        </g>
    </g>
</svg>