<?xml version="1.0" encoding="UTF-8"?>
<svg width="52px" height="52px" viewBox="0 0 52 52" version="1.1" xmlns="http://www.w3.org/2000/svg" xmlns:xlink="http://www.w3.org/1999/xlink">
    <title>编组 4</title>
    <defs>
        <linearGradient x1="-12.313058%" y1="-14.7070312%" x2="109.143415%" y2="108.638393%" id="linearGradient-1">
            <stop stop-color="#F1DCC4" offset="0%"></stop>
            <stop stop-color="#AE9484" offset="100%"></stop>
        </linearGradient>
        <rect id="path-2" x="0" y="0" width="52" height="52" rx="3.57142857"></rect>
        <path d="M22.1207049,27.7447245 C25.7254001,27.7447245 28.565433,24.7734665 29.6418686,22.5208687 C31.1577996,19.3485629 31.4216947,13.8438427 31.4216947,9.53771013 C31.4216947,1.66531625 26.0844392,1.9356158 21.6270304,1.9356158 C17.1696215,1.9356158 12.7759675,1.66531625 12.7759675,9.53771013 C12.7759675,13.8803566 13.0253319,19.3517497 14.5858142,22.5208687 C15.856767,25.1019943 18.5160098,27.7447245 22.1207049,27.7447245 Z" id="path-4"></path>
    </defs>
    <g id="2020.04.03--地图优化" stroke="none" stroke-width="1" fill="none" fill-rule="evenodd">
        <g id="A4-1--2-运单轨迹-实时轨迹" transform="translate(-286.000000, -579.000000)">
            <g id="编组-4" transform="translate(286.000000, 579.000000)">
                <mask id="mask-3" fill="white">
                    <use xlink:href="#path-2"></use>
                </mask>
                <use id="蒙版" fill="url(#linearGradient-1)" xlink:href="#path-2"></use>
                <g id="编组-11" mask="url(#mask-3)">
                    <g transform="translate(3.714286, 7.239230)">
                        <path d="M5.59704302,36.0225499 C11.1756725,31.9513992 16.7077196,29.9158238 22.1931845,29.9158238 C27.7082279,29.9158238 33.2157485,31.9734106 38.7157465,36.0885843 C40.5745998,37.4793988 41.9314169,39.4363531 42.581989,41.6649079 L44.3089983,47.5808312 L44.3089983,47.5808312 L5.27831747e-14,47.5808312 L1.58343856,41.8320749 C2.22642151,39.4976789 3.64115899,37.4499074 5.59704302,36.0225499 Z" id="Rectangle备份-11" stroke="none" fill="#A88269" fill-rule="evenodd"></path>
                        <path d="M25.2320359,30.3361024 C26.0891119,30.0677211 26.760568,29.876567 27.2464041,29.7626402 C27.7174612,29.652179 28.356183,29.5269308 29.1625695,29.3868956 L29.1625776,29.3869425 C29.3180205,29.3599486 29.4659148,29.4640771 29.4929086,29.61952 C29.4938488,29.6249338 29.4946325,29.6303736 29.4952589,29.6358326 C29.7854488,32.1649064 29.9305437,34.9799924 29.9305437,38.0810905 C29.9305437,41.3053471 29.6273402,44.0509031 29.0209334,46.3177587 L24.2856429,50.8905755 C25.0166065,45.6204602 25.3820884,41.4281165 25.3820884,38.3135446 C25.3820884,35.3102943 25.2658659,32.7524563 25.033421,30.6400308 L25.0334015,30.640033 C25.0184625,30.5042694 25.1016938,30.3769172 25.2320359,30.3361024 Z" id="矩形" stroke="none" fill="#4E3838" fill-rule="evenodd" transform="translate(27.108093, 40.113219) rotate(44.000000) translate(-27.108093, -40.113219) "></path>
                        <polygon id="Rectangle备份-13" stroke="none" fill="#FFDAC2" fill-rule="evenodd" points="17.778095 22.0361607 26.7933336 22.0361607 26.6352769 32.1572719 18.0816288 32.1572719"></polygon>
                        <path d="M17.9132764,30.0950182 C19.0827529,31.1786715 20.5811384,31.7204982 22.4084328,31.7204982 C24.2099068,31.7204982 25.5784294,31.215928 26.5140005,30.2067876 C26.6326397,30.0787273 26.8171048,30.0354764 26.980324,30.0973971 L28.1441118,30.5389048 C28.2548882,30.580777 28.3105964,30.7045905 28.2685903,30.8153162 C28.2611579,30.8349075 28.250894,30.8533036 28.238126,30.869918 C26.9348872,32.5657574 24.9916562,33.4136771 22.4084328,33.4136771 C19.8269576,33.4136771 17.7280875,32.5473895 16.1118225,30.8148142 C16.0311948,30.7282508 16.0359023,30.592712 16.1224035,30.5120177 C16.1436322,30.4922141 16.1686652,30.4769328 16.1959817,30.4671019 L17.4768561,30.0061311 C17.6275119,29.9519064 17.7958291,29.9861898 17.9132764,30.0950182 Z" id="路径-21备份" stroke="none" fill="#CFAB8E" fill-rule="evenodd"></path>
                        <path d="M12.4947703,19.1782786 C14.1143741,19.3485058 15.5975922,17.8664933 15.7902702,16.0332846 C15.9829482,14.200076 14.7121412,13.661132 13.0925373,13.4909047 C11.4729335,13.3206775 10.1178439,13.5836287 9.92516593,15.4168373 C9.73248793,17.250046 10.8751664,19.0080514 12.4947703,19.1782786 Z" id="Oval备份" stroke="none" fill="#FFDAC2" fill-rule="evenodd"></path>
                        <path d="M31.7028919,19.1782786 C30.0832881,19.3485058 28.60007,17.8664933 28.407392,16.0332846 C28.214714,14.200076 29.485521,13.661132 31.1051249,13.4909047 C32.7247287,13.3206775 34.0798183,13.5836287 34.2724963,15.4168373 C34.4651743,17.250046 33.3224958,19.0080514 31.7028919,19.1782786 Z" id="Oval备份-2" stroke="none" fill="#FFDAC2" fill-rule="evenodd"></path>
                        <mask id="mask-5" fill="white">
                            <use xlink:href="#path-4"></use>
                        </mask>
                        <use id="蒙版" stroke="none" fill="#FFE7D6" fill-rule="evenodd" xlink:href="#path-4"></use>
                        <path d="M23.1353149,18.7568947 C23.3427459,17.6638684 22.8984572,16.2390176 22.4833281,15.5891022 C22.3430834,15.3695386 21.8605422,15.3656585 21.7235133,15.5790553 C21.3077097,16.226591 20.8575369,17.6674459 21.059513,18.7538274 C21.1057483,19.002516 23.0943996,18.9724917 23.1353149,18.7568947 Z" id="椭圆形备份-7" stroke="none" fill="#FBD3B9" fill-rule="evenodd"></path>
                        <path d="M20.2123289,21.9654824 C20.7987034,22.3201607 21.4863308,22.5242881 22.2216347,22.5242881 C22.9332852,22.5242881 23.6002772,22.3330823 24.1740402,21.9992414" id="路径备份-5" stroke="#EE9585" stroke-width="0.857142857" fill="none" stroke-linecap="round"></path>
                        <path d="M12.8459583,14.0776 C12.5412311,13.6536928 12.0974331,13.466828 11.5145645,13.5170059 C11.3937709,12.1889509 11.0380542,6.60754063 12.7759675,3.84813058 C14.3666504,1.32248884 17.0277581,5.03089633e-14 22.061829,5.03089633e-14 C26.6055558,5.03089633e-14 29.7540039,1.27869001 31.3063946,3.84813058 C32.7761508,6.2807986 32.9449707,12.2186035 32.7849923,13.5485105 C32.1323012,13.4932268 31.6394353,13.6695899 31.3063946,14.0776 C31.3063946,11.9349587 29.8240095,8.30980748 29.1999442,7.87816685 C28.5758789,7.44652623 28.5758789,8.37600446 22.0988311,8.50332031 C15.6217833,8.63063616 15.0919608,7.51929757 14.5972934,7.87816685 C14.1026259,8.23703613 12.7936538,11.9349587 12.8459583,14.0776 Z" id="路径-19备份" stroke="none" fill="#48433D" fill-rule="evenodd"></path>
                        <path d="M6.93500056,44.9290737 C7.18165235,42.6286135 8.02144727,40.7585486 8.35415514,40.8879048 C8.68686301,41.017261 8.35112208,43.2534042 8.61953251,44.9290737 C8.61953251,44.9290737 6.93500056,44.9290737 6.93500056,44.9290737 Z" id="路径-22" stroke="none" fill="#966D52" fill-rule="evenodd"></path>
                        <path d="M35.2447767,44.9290737 C35.4914284,42.6286135 36.3312234,40.7585486 36.6639312,40.8879048 C36.9966391,41.017261 36.6608982,43.2534042 36.9293086,44.9290737 C36.9293086,44.9290737 35.2447767,44.9290737 35.2447767,44.9290737 Z" id="路径-22" stroke="none" fill="#966D52" fill-rule="evenodd" transform="translate(36.087043, 42.905324) scale(-1, 1) translate(-36.087043, -42.905324) "></path>
                    </g>
                </g>
            </g>
        </g>
    </g>
</svg>